<svg width="13" height="12" viewBox="0 0 13 12" fill="none" xmlns="http://www.w3.org/2000/svg">
<path fill-rule="evenodd" clip-rule="evenodd" d="M0.646522 11.253C0.45126 11.0577 0.45126 10.7411 0.646522 10.5459L10.546 0.646366C10.7413 0.451104 11.0579 0.451104 11.2531 0.646366C11.4484 0.841628 11.4484 1.15821 11.2531 1.35347L1.35363 11.253C1.15837 11.4482 0.841784 11.4482 0.646522 11.253Z" fill="black"/>
<path fill-rule="evenodd" clip-rule="evenodd" d="M1.35372 0.646522C1.54898 0.45126 1.86557 0.45126 2.06083 0.646522L11.9603 10.546C12.1556 10.7413 12.1556 11.0579 11.9603 11.2531C11.7651 11.4484 11.4485 11.4484 11.2532 11.2531L1.35372 1.35363C1.15846 1.15837 1.15846 0.841784 1.35372 0.646522Z" fill="black"/>
</svg>
