<svg width="40" height="32" viewBox="0 0 40 32" fill="none" xmlns="http://www.w3.org/2000/svg">
<path d="M8.23926 12.7836C8.72728 9.71599 12.5618 6.43924 15.5597 6.36952C15.7688 6.36952 15.978 6.2998 16.1174 6.16036C16.2568 6.09065 16.3963 6.02093 16.466 5.81177C17.5118 3.85966 16.954 2.32586 15.2111 1.07094C13.1892 -0.393145 9.98221 1.07094 8.37869 2.39558C4.33504 5.74205 0.221668 11.5285 0.430822 17.0364C-0.266359 20.7316 -0.126923 24.7054 0.918849 27.9822C1.61603 30.0737 3.63786 31.1195 5.7294 31.2589C7.82095 31.3985 12.1435 32.0258 14.0259 30.771C15.9083 29.5159 16.0477 27.0758 16.2568 24.9844C16.466 22.6837 17.0935 18.361 15.1414 16.5484C13.1892 14.8054 7.61179 16.6878 8.23926 12.7836Z" fill="#143B19"/>
<path d="M31.2463 12.7836C31.7344 9.71599 35.5688 6.43924 38.5668 6.36952C38.7759 6.36952 38.9851 6.2998 39.1245 6.16036C39.264 6.09065 39.4034 6.02093 39.4732 5.81177C40.519 3.85966 39.9612 2.32586 38.2183 1.07094C36.1965 -0.393145 32.9894 1.07094 31.3858 2.39558C27.3421 5.74205 23.2288 11.5287 23.4379 17.0364C22.7407 20.7316 22.8802 24.7054 23.9258 27.9822C24.623 30.0737 26.6448 31.1195 28.7365 31.2589C30.828 31.3985 35.1506 32.0258 37.033 30.771C38.9152 29.5159 39.0548 27.0758 39.2639 24.9844C39.4731 22.6837 40.1006 18.361 38.1484 16.5484C36.1963 14.8054 30.5492 16.6878 31.2463 12.7836Z" fill="#143B19"/>
</svg>
